<svg width="16" height="12" viewBox="0 0 16 12" fill="none" xmlns="http://www.w3.org/2000/svg">
<path opacity="0.9" d="M5.54988 11.575C5.41655 11.575 5.29155 11.554 5.17488 11.512C5.05821 11.4707 4.94988 11.4 4.84988 11.3L0.549879 6.99999C0.366545 6.81666 0.278879 6.57899 0.286879 6.28699C0.295545 5.99566 0.391545 5.75833 0.574878 5.57499C0.758212 5.39166 0.991545 5.29999 1.27488 5.29999C1.55821 5.29999 1.79155 5.39166 1.97488 5.57499L5.54988 9.14999L14.0249 0.674994C14.2082 0.491661 14.4459 0.399994 14.7379 0.399994C15.0292 0.399994 15.2665 0.491661 15.4499 0.674994C15.6332 0.858327 15.7249 1.09566 15.7249 1.38699C15.7249 1.67899 15.6332 1.91666 15.4499 2.09999L6.24988 11.3C6.14988 11.4 6.04155 11.4707 5.92488 11.512C5.80821 11.554 5.68321 11.575 5.54988 11.575V11.575Z" fill="#BBBBBB"/>
</svg>
