<?xml version="1.0" encoding="utf-8"?><svg viewBox="0 0 24 24" xmlns="http://www.w3.org/2000/svg" xmlns:xlink="http://www.w3.org/1999/xlink"><style>:root>svg{display:none}:root>svg:target{display:block}</style><svg viewBox="0 0 24 24" id="delete" xmlns="http://www.w3.org/2000/svg"><path opacity=".9" d="M6 19c0 1.1.9 2 2 2h8c1.1 0 2-.9 2-2V9c0-1.1-.9-2-2-2H8c-1.1 0-2 .9-2 2v10zM18 4h-2.5l-.71-.71c-.18-.18-.44-.29-.7-.29H9.91c-.26 0-.52.11-.7.29L8.5 4H6c-.55 0-1 .45-1 1s.45 1 1 1h12c.55 0 1-.45 1-1s-.45-1-1-1z"/></svg><svg viewBox="0 0 16 12" id="done" xmlns="http://www.w3.org/2000/svg"><path opacity=".9" d="M5.55 11.575c-.133 0-.258-.021-.375-.063a.871.871 0 01-.325-.212L.55 7c-.183-.183-.271-.421-.263-.713.009-.291.105-.529.288-.712a.948.948 0 01.7-.275.95.95 0 01.7.275L5.55 9.15 14.025.675c.183-.183.42-.275.713-.275.291 0 .529.092.712.275.183.183.275.42.275.712s-.092.53-.275.713l-9.2 9.2c-.1.1-.208.17-.325.212a1.099 1.099 0 01-.375.063z"/></svg><svg viewBox="0 0 19 18" id="edit" xmlns="http://www.w3.org/2000/svg"><path opacity=".9" d="M11.06 6.02l.92.92L2.92 16H2v-.92l9.06-9.06M14.66 0c-.25 0-.51.1-.7.29l-1.83 1.83 3.75 3.75 1.83-1.83a.995.995 0 000-1.41L15.37.29c-.2-.2-.45-.29-.71-.29zm-3.6 3.19L0 14.25V18h3.75L14.81 6.94l-3.75-3.75z"/></svg><svg viewBox="0 0 24 24" id="github" xmlns="http://www.w3.org/2000/svg"><path fill-rule="evenodd" clip-rule="evenodd" d="M12 0C5.37 0 0 5.37 0 12c0 5.31 3.435 9.795 8.205 11.385.6.105.825-.255.825-.57 0-.285-.015-1.23-.015-2.235-3.015.555-3.795-.735-4.035-1.41-.135-.345-.72-1.41-1.23-1.695-.42-.225-1.02-.78-.015-.795.945-.015 1.62.87 1.845 1.23 1.08 1.815 2.805 1.305 3.495.99.105-.78.42-1.305.765-1.605-2.67-.3-5.46-1.335-5.46-5.925 0-1.305.465-2.385 1.23-3.225-.12-.3-.54-1.53.12-3.18 0 0 1.005-.315 3.3 1.23.96-.27 1.98-.405 3-.405s2.04.135 3 .405c2.295-1.56 3.3-1.23 3.3-1.23.66 1.65.24 2.88.12 3.18.765.84 1.23 1.905 1.23 3.225 0 4.605-2.805 5.625-5.475 5.925.435.375.81 1.095.81 2.22 0 1.605-.015 2.895-.015 3.3 0 .315.225.69.825.57A12.02 12.02 0 0024 12c0-6.63-5.37-12-12-12z"/></svg><svg viewBox="0 0 22 16" id="gmail" xmlns="http://www.w3.org/2000/svg"><path d="M17.73 1.41l-1.28 1L11 6.46 5.55 2.37l-1.28-1A2 2 0 001 3.05v11.59A1.36 1.36 0 002.36 16h3.19V8.28L11 12.37l5.45-4.09V16h3.19A1.36 1.36 0 0021 14.64V3.05a2 2 0 00-3.27-1.64z"/></svg><svg viewBox="0 0 18 2" id="minus" xmlns="http://www.w3.org/2000/svg"><path opacity=".9" d="M17 1H1"/></svg><svg viewBox="0 0 18 18" id="plus" xmlns="http://www.w3.org/2000/svg"><path opacity=".9" d="M9 17V9m0 0V1m0 8h8M9 9H1"/></svg><svg viewBox="0 0 24 24" id="telegram" xmlns="http://www.w3.org/2000/svg"><g clip-path="url(#ha)"><path fill-rule="evenodd" clip-rule="evenodd" d="M24 12c0 6.627-5.373 12-12 12S0 18.627 0 12 5.373 0 12 0s12 5.373 12 12zM12.43 8.859c-1.167.485-3.5 1.49-6.998 3.014-.568.226-.866.447-.893.663-.046.366.412.51 1.034.705.085.027.173.054.263.084.613.199 1.437.432 1.865.441.389.008.823-.152 1.302-.48 3.268-2.207 4.955-3.322 5.061-3.346.075-.017.179-.039.249.024.07.062.063.18.056.212-.046.193-1.84 1.862-2.77 2.726-.29.269-.495.46-.537.504-.094.097-.19.19-.282.279-.57.548-.996.96.024 1.632.49.323.882.59 1.273.856.427.291.853.581 1.405.943.14.092.274.187.405.28.497.355.944.673 1.496.623.32-.03.652-.331.82-1.23.397-2.126 1.179-6.73 1.36-8.628a2.112 2.112 0 00-.02-.472.506.506 0 00-.172-.325c-.143-.117-.365-.142-.465-.14-.451.008-1.143.249-4.476 1.635z"/></g><defs><clipPath id="ha"><path d="M0 0h24v24H0z"/></clipPath></defs></svg></svg>